<?xml version="1.0" standalone="no"?><!DOCTYPE svg PUBLIC "-//W3C//DTD SVG 1.1//EN" "http://www.w3.org/Graphics/SVG/1.1/DTD/svg11.dtd"><svg class="icon" width="200px" height="200.00px" viewBox="0 0 1024 1024" version="1.1" xmlns="http://www.w3.org/2000/svg"><path d="M513.559007 60.225663c-248.291946 0-449.587532 201.299679-449.587532 449.625394 0 248.291946 201.295586 449.594695 449.587532 449.594695 248.284783 0 449.632557-201.303772 449.632557-449.594695C963.191564 261.525342 761.84379 60.225663 513.559007 60.225663zM678.729837 644.059712c12.798491 13.003152 12.217253 34.302247-1.272993 47.575552-13.490246 13.275351-34.800597 13.502525-47.590901 0.503467l-116.284423-118.191866-116.278283 118.187773c-12.798491 13.003152-34.093493 12.774955-47.590901-0.499373-13.497409-13.277398-14.063297-34.576493-1.279133-47.575552l117.065206-118.984928L348.433202 406.088832c-12.783141-12.999059-12.218276-34.298154 1.279133-47.576575 13.497409-13.274328 34.792411-13.501502 47.590901-0.49835l116.279307 118.187773 116.2834-118.190843c12.790304-12.999059 34.100656-12.771885 47.590901 0.502443 13.491269 13.274328 14.071484 34.573423 1.272993 47.576575L561.666678 525.07376 678.729837 644.059712z" fill="#040000" /></svg>