<?xml version="1.0" standalone="no"?><!DOCTYPE svg PUBLIC "-//W3C//DTD SVG 1.1//EN" "http://www.w3.org/Graphics/SVG/1.1/DTD/svg11.dtd"><svg class="icon" width="200px" height="200.00px" viewBox="0 0 1024 1024" version="1.1" xmlns="http://www.w3.org/2000/svg"><path d="M807.68 192.64h-672c-33.92 0-56.32 21.12-56.32 53.76v440.96c0 32 21.76 51.84 56.32 51.84h97.92c16 0 28.16 21.12 28.16 39.68v131.2l178.56-155.52c2.56-1.92 5.12-4.48 7.04-7.04 3.2-3.2 8.32-8.32 10.24-8.32h350.08c33.92 0 56.32-19.84 56.32-51.84V246.4c-0.64-32.64-22.4-53.76-56.32-53.76z m28.16 494.08c0 10.24-3.2 23.68-28.16 23.68H457.6c-14.08 0-23.68 9.6-30.72 17.28-1.92 1.92-3.84 3.84-5.76 5.12l-131.84 114.56v-69.76c0-32.64-22.4-67.84-56.32-67.84H135.68c-28.16 0-28.16-17.92-28.16-23.68V246.4c0-21.12 15.36-25.6 28.16-25.6h672c18.56 0 28.16 8.32 28.16 25.6v440.32z m83.84-606.08h-672c-33.92 0-56.32 21.12-56.32 53.76v30.72c0 7.68 6.4 14.08 14.08 14.08s14.08-6.4 14.08-14.08V134.4c0-21.12 15.36-25.6 28.16-25.6h672c18.56 0 28.16 8.32 28.16 25.6v440.96c0 18.56-11.52 37.76-28.16 37.76h-25.6c-7.68 0-14.08 6.4-14.08 14.08s6.4 14.08 14.08 14.08h25.6c34.56 0 56.32-34.56 56.32-65.92V134.4c-0.64-32.64-22.4-53.76-56.32-53.76z" fill="#90CAF9" /><path d="M466.56 651.52c-7.68 0-14.72-1.92-21.12-6.4-4.48-3.2-112-72.32-155.52-128.64-14.72-19.2-35.2-45.44-35.2-83.2 0-63.36 55.68-114.56 124.8-114.56 33.92 0 64.64 25.6 87.04 48.64 22.4-23.04 53.12-48.64 87.04-48.64 69.12 0 124.8 51.2 124.8 114.56 0 37.76-20.48 64-35.2 83.2-43.52 56.96-151.04 126.08-155.52 128.64-6.4 4.48-13.44 6.4-21.12 6.4z m-87.04-307.2c-54.4 0-99.2 39.68-99.2 88.96 0 28.8 16 49.92 30.08 67.84 40.96 53.12 147.84 122.24 149.12 122.88 4.48 2.56 10.88 2.56 14.72 0 1.28-0.64 108.16-69.76 149.12-122.88 14.08-17.92 30.08-39.04 30.08-67.84 0-49.28-44.8-88.96-99.2-88.96-28.8 0-58.24 28.8-77.44 50.56L467.2 405.76l-9.6-10.88c-19.84-21.76-49.28-50.56-78.08-50.56z" fill="#DC1800" /></svg>